<mxfile host="app.diagrams.net" modified="2024-03-29T12:34:52.227Z" agent="Mozilla/5.0 (Windows NT 10.0; Win64; x64) AppleWebKit/537.36 (KHTML, like Gecko) Chrome/123.0.0.0 Safari/537.36" version="24.2.1" etag="_0gBm7uxBGEalWhJaU67" type="github">
  <diagram name="Page-1" id="BubWxkNTIQiqQte-cv73">
    <mxGraphModel>
      <root>
        <mxCell id="0" />
        <mxCell id="1" parent="0" />
      </root>
    </mxGraphModel>
  </diagram>
</mxfile>
